<svg width="4161" height="800" viewBox="0 0 4161 800" fill="none" xmlns="http://www.w3.org/2000/svg">
<mask id="mask0_198_603" style="mask-type:luminance" maskUnits="userSpaceOnUse" x="0" y="0" width="584" height="695">
<path d="M21.1107 0C9.49982 0 0 9.49976 0 20.0551V118.22C0 129.831 9.49982 139.331 21.1107 139.331H339.882C345.16 139.331 350.438 141.442 354.66 144.608C357.826 148.83 359.937 154.108 359.937 159.386V257.551C359.937 262.828 357.826 268.106 354.66 272.328C350.438 275.495 345.16 277.606 339.882 277.606H21.1107C9.49982 277.606 0 287.106 0 298.717V396.882C0 407.437 9.49982 416.936 21.1107 416.936H339.882C345.16 416.936 350.438 419.048 354.66 423.27C357.826 426.437 359.937 431.714 359.937 436.992V535.157C359.937 546.767 369.437 556.267 381.048 556.267H563.656C575.267 556.267 583.712 546.767 583.712 535.157V436.992C583.712 426.436 575.267 416.936 563.656 416.936H381.048C375.77 416.936 370.492 414.826 366.27 410.603C362.048 407.437 359.937 402.159 359.937 396.882V298.717C359.937 293.439 362.048 288.161 366.27 283.939C370.492 279.717 375.77 277.606 381.048 277.606H563.656C575.267 277.606 583.712 269.162 583.712 257.551V159.386C583.712 147.775 575.267 139.331 563.656 139.331H381.048C375.77 139.331 370.492 137.22 366.27 132.998C362.048 128.775 359.937 123.498 359.937 118.22V20.0551C359.937 9.49976 351.493 0 339.882 0H21.1107ZM157.275 556.267C145.664 556.267 136.164 564.712 136.164 576.323V674.487C136.164 686.098 145.664 694.543 157.275 694.543H339.882C351.493 694.543 359.937 686.098 359.937 674.487V576.323C359.937 564.712 351.493 556.267 339.882 556.267H157.275Z" fill="white"/>
</mask>
<g mask="url(#mask0_198_603)">
<path d="M-337.773 16217.2L15495.3 384.211L-337.777 -15448.8L-16170.8 384.207L-337.773 16217.2Z" fill="#F1F2F6"/>
</g>
<path d="M1020.49 478.978C1012.99 499.476 1001.46 515.71 985.936 527.68C970.398 539.65 950.66 545.635 926.742 545.635C902.031 545.635 882.113 539.967 866.956 528.641C851.809 517.304 840.726 501.45 833.738 481.078C826.73 460.706 823.236 437.157 823.236 410.421C823.236 383.441 826.73 359.818 833.738 339.573C840.726 319.328 851.619 303.548 866.397 292.211C881.142 280.885 900.258 275.217 923.68 275.217C948.38 275.217 968.752 281.265 984.785 293.362C1000.84 305.458 1012.68 321.756 1020.31 342.244C1027.95 362.753 1031.77 385.468 1031.77 410.421C1031.77 435.637 1028.02 458.49 1020.49 478.978ZM1038.84 221.174C1010.19 202.206 976.383 192.716 937.434 192.716C898.221 192.716 865.299 202.206 838.699 221.174C837.274 222.187 836.082 223.443 834.688 224.499V66.6855H741.875V616.672H823.236V586.104C828.45 590.822 833.812 595.393 839.649 599.478C866.903 618.583 900.638 628.125 940.875 628.125C978.801 628.125 1011.91 618.583 1040.17 599.478C1068.44 580.383 1090.33 554.417 1105.87 521.558C1121.38 488.72 1129.16 451.671 1129.16 410.421C1129.16 368.674 1121.28 331.435 1105.48 298.703C1089.71 265.992 1067.48 240.142 1038.84 221.174Z" fill="#F1F2F6"/>
<path d="M1377.9 202.461C1364.91 203.348 1352.24 205.776 1339.88 209.724C1327.53 213.661 1316.27 219.076 1306.1 225.947C1294.13 233.336 1283.88 242.698 1275.35 254.024C1271.45 259.196 1268.01 264.696 1264.85 270.375V204.171H1183.5V616.675H1275.92V406.993C1275.92 391.202 1277.84 376.498 1281.64 362.871C1285.47 349.255 1291.38 337.084 1299.42 326.402C1307.44 315.699 1317.79 306.917 1330.53 300.035C1343.27 292.404 1357.59 287.949 1373.51 286.683C1389.42 285.405 1403.49 286.545 1415.7 290.113V204.171C1403.49 202.145 1390.88 201.564 1377.9 202.461Z" fill="#F1F2F6"/>
<path d="M1473 616.665H1565.05V204.172H1473V616.665Z" fill="#F1F2F6"/>
<path d="M1473 141.538H1565.05V57.1274H1473V141.538Z" fill="#F1F2F6"/>
<path d="M1759.08 296.032C1774.61 284.706 1794.35 279.038 1818.29 279.038C1839.41 279.038 1858.24 285.213 1874.82 297.563C1891.36 309.913 1903.2 327.16 1910.34 349.316L2001.99 324.49C1992.06 283.746 1970.87 251.594 1938.4 228.056C1905.94 204.507 1866.29 192.716 1819.42 192.716C1777.67 192.716 1741.63 202.079 1711.34 220.794C1681.03 239.508 1657.67 265.232 1641.26 297.943C1624.83 330.664 1616.48 368.157 1616.23 410.421C1616.48 451.924 1624.58 489.1 1640.49 521.949C1656.39 554.797 1679.38 580.71 1709.41 599.678C1739.47 618.636 1775.75 628.125 1818.29 628.125C1864.36 628.125 1903.33 616.862 1935.16 594.327C1967 571.791 1989.27 539.523 2001.99 497.502L1908.03 476.497C1900.92 497.64 1890.28 513.8 1876.15 525.01C1862.02 536.219 1842.73 541.803 1818.29 541.803C1783.66 541.803 1757.56 529.717 1739.98 505.535C1722.42 481.342 1713.62 449.634 1713.62 410.421C1713.62 385.215 1717.33 362.689 1724.7 342.814C1732.08 322.959 1743.54 307.358 1759.08 296.032Z" fill="#F1F2F6"/>
<path d="M2414.87 204.172H2299.9L2149.04 402.792V66.6781H2055.84L2055.09 616.665H2149.04V418.066L2306.78 616.665H2428.61L2254.84 410.424L2414.87 204.172Z" fill="#F1F2F6"/>
<path d="M2465.89 616.665H2522.02V66.6783H2465.89V616.665Z" fill="#F1F2F6"/>
<path d="M2863.24 471.155C2859.67 491.77 2851.91 510.295 2839.93 526.729C2827.96 543.143 2812.19 556.073 2792.58 565.499C2772.96 574.915 2750.04 579.622 2723.83 579.622C2701.69 579.622 2683.91 575.939 2670.55 568.55C2657.19 561.161 2647.51 551.872 2641.52 540.663C2635.54 529.463 2632.55 517.884 2632.55 505.904C2632.55 491.147 2636.06 478.787 2643.06 468.854C2650.05 458.932 2659.02 450.974 2669.98 444.989C2680.93 439.014 2692.26 434.36 2703.98 431.056C2721.29 426.464 2740.69 422.527 2762.22 419.213C2783.72 415.909 2805.62 412.974 2827.91 410.42C2842.17 408.794 2855.53 407.169 2868.49 405.533C2868.43 411.729 2868.34 418.97 2868.2 427.414C2867.95 443.332 2866.3 457.909 2863.24 471.155ZM2912.13 275.216C2901.18 248.48 2882.53 228.055 2856.18 213.921C2829.82 199.777 2797.81 192.716 2760.11 192.716C2714.53 192.716 2677.49 202.912 2648.98 223.274C2620.45 243.645 2601.48 272.293 2592.06 309.215L2646.68 325.259C2654.57 297.752 2668.27 277.634 2687.74 264.904C2707.22 252.174 2731.09 245.809 2759.34 245.809C2800.35 245.809 2829.12 255.615 2845.66 275.216C2860.86 293.234 2868.42 320.594 2869.01 356.44C2855.66 358.308 2841.16 360.198 2825.24 362.108C2800.91 365.043 2776.09 368.484 2750.76 372.421C2725.43 376.368 2702.31 380.886 2681.44 385.974C2660.82 391.336 2642.67 399.105 2627.01 409.28C2611.36 419.466 2599.01 432.512 2589.96 448.43C2580.91 464.347 2576.4 483.516 2576.4 505.904C2576.4 527.817 2581.61 548.051 2592.06 566.639C2602.5 585.227 2618.22 600.121 2639.23 611.331C2660.25 622.53 2686.28 628.135 2717.34 628.135C2758.59 628.135 2793.97 618.836 2823.52 600.248C2844.4 587.106 2861.19 569.542 2874.31 547.999V616.672H2924.35V360.388C2924.35 345.114 2923.58 330.094 2922.05 315.327C2920.53 300.549 2917.22 287.197 2912.13 275.216Z" fill="#F1F2F6"/>
<path d="M3132.01 543.23L2996.53 204.171H2936.95L3104.57 615.661L3036.64 800H3092.77L3314.31 204.171H3257.01L3132.01 543.23Z" fill="#F1F2F6"/>
<path d="M3402.01 287.44C3425.55 258.676 3459.49 244.279 3503.8 244.279C3546.06 244.279 3578.2 257.906 3600.22 285.149C3618.34 307.558 3629.23 338.971 3633.14 379.102H3368.31C3372.17 340.913 3383.33 310.271 3402.01 287.44ZM3661.91 426.084H3692.1C3693.36 377.719 3686.61 336.079 3671.85 301.193C3657.07 266.308 3635.3 239.508 3606.55 220.793C3577.75 202.078 3543.01 192.716 3502.27 192.716C3462.55 192.716 3428.1 201.635 3398.95 219.463C3369.8 237.28 3347.19 262.624 3331.16 295.462C3315.12 328.31 3307.09 367.259 3307.09 412.341C3307.09 455.871 3315.24 493.818 3331.55 526.149C3347.83 558.491 3370.7 583.581 3400.09 601.398C3429.51 619.215 3464.32 628.135 3504.55 628.135C3544.53 628.135 3580.37 618.255 3612.07 598.538C3643.77 578.799 3667.77 550.975 3684.07 515.076L3631.75 494.831C3619.01 520.555 3601.64 540.23 3579.62 553.846C3557.58 567.473 3531.8 574.281 3502.27 574.281C3458.97 574.281 3425.55 559.958 3402.01 531.31C3380.89 505.629 3369.31 470.501 3367.13 426.084H3634.8H3661.91Z" fill="#F1F2F6"/>
<path d="M3907.5 200.932C3892.98 201.818 3878.59 204.753 3864.33 209.714C3850.07 214.675 3837.61 221.874 3826.9 231.289C3818.25 237.918 3810.23 246.383 3802.85 256.696C3799.89 260.812 3797.34 265.203 3794.84 269.626V204.172H3744.4V616.665H3800.56V410.804C3800.56 394.517 3801.7 378.019 3803.99 361.352C3806.29 344.675 3810.87 328.873 3817.75 313.99C3824.61 299.086 3834.94 286.293 3848.68 275.59C3863.69 263.377 3880.14 256.242 3897.96 254.205C3915.77 252.178 3932.18 253.065 3947.21 256.886V204.172C3935.25 201.122 3922.01 200.045 3907.5 200.932Z" fill="#F1F2F6"/>
<path d="M4042.8 156.554V87.4508H4021.59V77.5537H4074.79V87.4508H4053.93V156.554H4042.8ZM4086.1 156.554V77.5537H4096.35L4125.86 119.44H4120.92L4150.25 77.5537H4160.5V156.554H4149.37V91.1622L4153.26 92.3994L4123.92 133.578H4122.68L4093.88 92.3994L4097.23 91.1622V156.554H4086.1Z" fill="#F1F2F6"/>
</svg>
