<svg width="673" height="800" viewBox="0 0 673 800" fill="none" xmlns="http://www.w3.org/2000/svg">
<mask id="mask0_198_626" style="mask-type:luminance" maskUnits="userSpaceOnUse" x="0" y="0" width="673" height="800">
<path d="M24.3161 0C10.9422 0 0 10.9422 0 23.1002V136.17C0 149.544 10.9422 160.486 24.3161 160.486H391.489C397.568 160.486 403.647 162.918 408.51 166.565C412.158 171.428 414.589 177.508 414.589 183.587V296.656C414.589 302.735 412.158 308.815 408.51 313.678C403.647 317.325 397.568 319.757 391.489 319.757H24.3161C10.9422 319.757 0 330.699 0 344.073V457.143C0 469.301 10.9422 480.243 24.3161 480.243H391.489C397.568 480.243 403.647 482.675 408.51 487.538C412.158 491.185 414.589 497.264 414.589 503.343V616.413C414.589 629.787 425.531 640.729 438.905 640.729H649.24C662.614 640.729 672.341 629.787 672.341 616.413V503.343C672.341 491.185 662.614 480.243 649.24 480.243H438.905C432.826 480.243 426.747 477.811 421.884 472.948C417.02 469.301 414.589 463.222 414.589 457.143V344.073C414.589 337.994 417.02 331.915 421.884 327.052C426.747 322.188 432.826 319.757 438.905 319.757H649.24C662.614 319.757 672.341 310.03 672.341 296.656V183.587C672.341 170.213 662.614 160.486 649.24 160.486H438.905C432.826 160.486 426.747 158.055 421.884 153.192C417.02 148.328 414.589 142.249 414.589 136.17V23.1002C414.589 10.9422 404.862 0 391.489 0H24.3161ZM181.155 640.729C167.781 640.729 156.839 650.456 156.839 663.83V776.899C156.839 790.273 167.781 800 181.155 800H391.489C404.862 800 414.589 790.273 414.589 776.899V663.83C414.589 650.456 404.862 640.729 391.489 640.729H181.155Z" fill="white"/>
</mask>
<g mask="url(#mask0_198_626)">
<path d="M-389.053 18679.6L17848 442.552L-389.053 -17794.5L-18626.1 442.551L-389.053 18679.6Z" fill="#F1F2F6"/>
</g>
</svg>
